<svg xmlns="http://www.w3.org/2000/svg" viewBox="0 0 1026 1536"><defs><linearGradient id="g" x1="0" y1="0" x2="1" y2="1"><stop stop-color="#07030d"/><stop offset=".5" stop-color="#261044"/><stop offset="1" stop-color="#050209"/></linearGradient><linearGradient id="m" x1="0" y1="0" x2="1" y2="0"><stop stop-color="#817b8a"/><stop offset=".5" stop-color="#fff"/><stop offset="1" stop-color="#77717f"/></linearGradient></defs><rect width="1026" height="1536" fill="url(#g)"/><path d="M18 170V18H170M856 18h152v152M18 1366v152h152M856 1518h152v-152" fill="none" stroke="#b05cff" stroke-width="8"/><path d="M120 0L1026 906M0 520L700 0M0 1250L1026 224" stroke="#9b4bff" stroke-opacity=".12" stroke-width="3"/><g transform="translate(513 500)"><path d="M0-220L32-75 125-125 75-32 220 0 75 32 125 125 32 75 0 220-32 75-125 125-75 32-220 0-75-32-125-125-32-75Z" fill="#8d3cff" stroke="#d7a6ff" stroke-width="4"/><circle r="70" fill="#0b0515" stroke="#b76cff" stroke-width="3"/><text y="20" text-anchor="middle" fill="#d9c3eb" font-family="Arial" font-size="38" font-weight="800">THE SIX</text></g><text x="513" y="900" text-anchor="middle" fill="#f0edf4" font-family="Arial" font-size="34" letter-spacing="8">PLAYER CARD</text><text x="513" y="1010" text-anchor="middle" fill="url(#m)" font-family="Arial" font-size="90" font-weight="800" letter-spacing="8">PLAYER</text><text x="513" y="1080" text-anchor="middle" fill="#b45bff" font-family="Arial" font-size="24" letter-spacing="8">DUMMY PLACEHOLDER</text><text x="513" y="1410" text-anchor="middle" fill="#c9c3cf" font-family="Arial" font-size="34" letter-spacing="12">GOD SYNDICATE</text></svg>